<?xml version="1.0" encoding="UTF-8" standalone="no"?>
<!-- Created with Inkscape (http://www.inkscape.org/) -->

<svg
   xmlns:dc="http://purl.org/dc/elements/1.1/"
   xmlns:cc="http://creativecommons.org/ns#"
   xmlns:rdf="http://www.w3.org/1999/02/22-rdf-syntax-ns#"
   xmlns:svg="http://www.w3.org/2000/svg"
   xmlns="http://www.w3.org/2000/svg"
   xmlns:sodipodi="http://sodipodi.sourceforge.net/DTD/sodipodi-0.dtd"
   xmlns:inkscape="http://www.inkscape.org/namespaces/inkscape"
   width="210mm"
   height="297mm"
   viewBox="0 0 744.09448819 1052.3622047"
   id="svg2"
   version="1.1"
   inkscape:version="0.91 r13725"
   sodipodi:docname="logo.svg"
   inkscape:export-filename="C:\inetpub\wwwroot\google\webkoom\_arquivo\logo.png"
   inkscape:export-xdpi="71.988556"
   inkscape:export-ydpi="71.988556">
  <defs
     id="defs4">
    <inkscape:path-effect
       is_visible="true"
       id="path-effect4248"
       effect="spiro" />
    <inkscape:path-effect
       effect="spiro"
       id="path-effect4245"
       is_visible="true" />
    <inkscape:path-effect
       is_visible="true"
       id="path-effect4242"
       effect="spiro" />
    <inkscape:path-effect
       is_visible="true"
       id="path-effect6039"
       effect="spiro" />
    <inkscape:path-effect
       effect="spiro"
       id="path-effect6035"
       is_visible="true" />
    <inkscape:path-effect
       is_visible="true"
       id="path-effect6031"
       effect="spiro" />
    <inkscape:path-effect
       effect="spiro"
       id="path-effect6027"
       is_visible="true" />
    <inkscape:path-effect
       is_visible="true"
       id="path-effect6022"
       effect="spiro" />
    <inkscape:path-effect
       effect="spiro"
       id="path-effect6019"
       is_visible="true" />
    <inkscape:path-effect
       is_visible="true"
       id="path-effect6016"
       effect="spiro" />
    <inkscape:path-effect
       effect="spiro"
       id="path-effect5977"
       is_visible="true" />
    <inkscape:path-effect
       effect="spiro"
       id="path-effect5973"
       is_visible="true" />
    <inkscape:path-effect
       is_visible="true"
       id="path-effect5969"
       effect="spiro" />
    <inkscape:path-effect
       effect="spiro"
       id="path-effect5965"
       is_visible="true" />
  </defs>
  <sodipodi:namedview
     id="base"
     pagecolor="#ffffff"
     bordercolor="#666666"
     borderopacity="1.0"
     inkscape:pageopacity="0.0"
     inkscape:pageshadow="2"
     inkscape:zoom="0.29745132"
     inkscape:cx="-1583.5457"
     inkscape:cy="107.69497"
     inkscape:document-units="px"
     inkscape:current-layer="layer1"
     showgrid="false"
     inkscape:window-width="1203"
     inkscape:window-height="731"
     inkscape:window-x="129"
     inkscape:window-y="8"
     inkscape:window-maximized="0" />
  <metadata
     id="metadata7">
    <rdf:RDF>
      <cc:Work
         rdf:about="">
        <dc:format>image/svg+xml</dc:format>
        <dc:type
           rdf:resource="http://purl.org/dc/dcmitype/StillImage" />
        <dc:title />
      </cc:Work>
    </rdf:RDF>
  </metadata>
  <g
     inkscape:label="Camada 1"
     inkscape:groupmode="layer"
     id="layer1">
    <g
       id="g5859"
       transform="matrix(0.38752404,0,0,0.38752404,679.23336,619.94402)">
      <path
         style="fill:#982068;fill-opacity:1;fill-rule:evenodd;stroke:none;stroke-width:1px;stroke-linecap:butt;stroke-linejoin:miter;stroke-opacity:1"
         d="m -3892.4434,-214.98183 c 118.3616,-8.96911 243.8616,-5.50873 388.6007,55.06284 l -101.2169,242.197607 c -92.6339,-36.095193 -166.1279,-43.091666 -254.8498,-37.956341 z"
         id="path5770"
         inkscape:connector-curvature="0"
         sodipodi:nodetypes="ccccc" />
      <path
         sodipodi:nodetypes="ccccc"
         inkscape:connector-curvature="0"
         id="path5772"
         d="m -3485.8147,-150.1777 c 106.9417,51.510873 209.3595,117.774228 304.3075,242.686943 l -209.2747,153.683017 c -58.5233,-76.60488 -122.7408,-121.6033 -200.0065,-156.197512 z"
         style="fill:#ca2035;fill-opacity:1;fill-rule:evenodd;stroke:none;stroke-width:1px;stroke-linecap:butt;stroke-linejoin:miter;stroke-opacity:1"
         inkscape:transform-center-x="-98.123135"
         inkscape:transform-center-y="203.83403" />
      <path
         inkscape:transform-center-y="201.31331"
         inkscape:transform-center-x="34.867975"
         style="fill:#ef5124;fill-opacity:1;fill-rule:evenodd;stroke:none;stroke-width:1px;stroke-linecap:butt;stroke-linejoin:miter;stroke-opacity:1"
         d="m -3170.4512,106.82027 c 68.0991,97.2235 121.472,206.35387 143.2183,361.74179 l -259.4161,29.21525 c -13.5935,-95.43848 -46.4183,-168.46695 -92.3838,-236.42356 z"
         id="path5774"
         inkscape:connector-curvature="0"
         sodipodi:nodetypes="ccccc" />
      <path
         sodipodi:nodetypes="ccccc"
         inkscape:connector-curvature="0"
         id="path5776"
         d="m -3025.6198,486.26914 c 9.2084,118.34309 3.4458,241.30675 -56.8329,386.168 l -241.1237,-104.56111 c 36.8188,-89.09356 46.3522,-167.59084 37.4318,-251.7762 z"
         style="fill:#f46f22;fill-opacity:1;fill-rule:evenodd;stroke:none;stroke-width:1px;stroke-linecap:butt;stroke-linejoin:miter;stroke-opacity:1"
         inkscape:transform-center-x="150.55587"
         inkscape:transform-center-y="194.36315" />
      <path
         inkscape:transform-center-y="96.90661"
         inkscape:transform-center-x="204.06873"
         style="fill:#fdb917;fill-opacity:1;fill-rule:evenodd;stroke:none;stroke-width:1px;stroke-linecap:butt;stroke-linejoin:miter;stroke-opacity:1"
         d="m -3090.0857,888.3116 c -52.0378,106.68621 -113.6997,204.9164 -239.0793,299.2471 l -155.3616,-209.68194 c 76.8926,-58.14466 118.5552,-116.09098 153.5301,-193.18509 z"
         id="path5778"
         inkscape:connector-curvature="0"
         sodipodi:nodetypes="ccccc" />
      <path
         sodipodi:nodetypes="ccccc"
         inkscape:connector-curvature="0"
         id="path5780"
         d="m -3341.4408,1198.0984 c -97.6094,67.5447 -205.4659,123.3594 -360.9751,144.2212 l -31.4146,-257.4377 c 95.5143,-13.0502 166.9365,-45.6441 235.1793,-95.74064 z"
         style="fill:#f6ec1d;fill-opacity:1;fill-rule:evenodd;stroke:none;stroke-width:1px;stroke-linecap:butt;stroke-linejoin:miter;stroke-opacity:1"
         inkscape:transform-center-x="200.98158"
         inkscape:transform-center-y="-36.363245" />
      <path
         inkscape:transform-center-y="-151.1425"
         inkscape:transform-center-x="194.26181"
         style="fill:#c4d334;fill-opacity:1;fill-rule:evenodd;stroke:none;stroke-width:1px;stroke-linecap:butt;stroke-linejoin:miter;stroke-opacity:1"
         d="m -3721.4467,1345.7175 c -118.3723,8.8237 -242.9565,4.2414 -387.6211,-56.5079 l 103.3217,-238.4582 c 88.9734,37.1082 171.4927,44.2103 255.7066,35.5637 z"
         id="path5782"
         inkscape:connector-curvature="0"
         sodipodi:nodetypes="ccccc" />
      <path
         sodipodi:nodetypes="ccccc"
         inkscape:connector-curvature="0"
         id="path5784"
         d="m -4126.0536,1283.4295 c -107.4299,-50.4846 -209.0932,-120.864 -305.2329,-244.862 l 210.0799,-154.61696 c 59.2541,76.04103 116.7964,120.58876 198.9082,159.86406 z"
         style="fill:#239941;fill-opacity:1;fill-rule:evenodd;stroke:none;stroke-width:1px;stroke-linecap:butt;stroke-linejoin:miter;stroke-opacity:1"
         inkscape:transform-center-x="100.47754"
         inkscape:transform-center-y="-203.36431" />
      <path
         inkscape:transform-center-y="-200.70153"
         inkscape:transform-center-x="-37.602235"
         style="fill:#179897;fill-opacity:1;fill-rule:evenodd;stroke:none;stroke-width:1px;stroke-linecap:butt;stroke-linejoin:miter;stroke-opacity:1"
         d="m -4442.1586,1025.1608 c -67.0834,-97.92703 -122.363,-206.94503 -142.4907,-362.55098 l 259.4074,-30.18672 c 12.5993,95.5748 42.8566,169.56302 92.6304,238.0415 z"
         id="path5786"
         inkscape:connector-curvature="0"
         sodipodi:nodetypes="ccccc" />
      <path
         sodipodi:nodetypes="ccccc"
         inkscape:connector-curvature="0"
         id="path5788"
         d="m -4586.6828,644.96228 c -8.3577,-118.40616 -2.3778,-242.04624 58.9405,-386.47064 l 239.8642,106.08112 c -37.4582,88.82666 -45.8029,168.59549 -37.4878,252.84275 z"
         style="fill:#233d96;fill-opacity:1;fill-rule:evenodd;stroke:none;stroke-width:1px;stroke-linecap:butt;stroke-linejoin:miter;stroke-opacity:1"
         inkscape:transform-center-x="-151.84461"
         inkscape:transform-center-y="-194.13634" />
      <path
         inkscape:transform-center-y="-98.269851"
         inkscape:transform-center-x="-203.80532"
         style="fill:#6d2c9a;fill-opacity:1;fill-rule:evenodd;stroke:none;stroke-width:1px;stroke-linecap:butt;stroke-linejoin:miter;stroke-opacity:1"
         d="m -4520.7822,242.16478 c 51.4472,-106.97222 111.9163,-204.384521 236.7726,-299.406875 l 158.1708,211.516715 c -76.57,58.56891 -121.7461,115.65153 -156.2944,192.93769 z"
         id="path5790"
         inkscape:connector-curvature="0"
         sodipodi:nodetypes="ccccc" />
      <path
         sodipodi:nodetypes="ccccc"
         inkscape:connector-curvature="0"
         id="path5792"
         d="m -4270.2501,-67.083673 c 96.5333,-69.073897 204.9437,-121.554067 360.105,-144.862917 l 30.7597,259.553926 c -95.2968,14.553188 -166.1554,44.931358 -234.5044,94.289144 z"
         style="fill:#93268f;fill-opacity:1;fill-rule:evenodd;stroke:none;stroke-width:1px;stroke-linecap:butt;stroke-linejoin:miter;stroke-opacity:1"
         inkscape:transform-center-x="-201.88404"
         inkscape:transform-center-y="32.220781" />
    </g>
    <g
       id="g5847"
       transform="matrix(0.38752404,0,0,0.38752404,852.66397,-484.79629)">
      <circle
         style="opacity:1;fill:none;fill-opacity:1;fill-rule:nonzero;stroke:#000000;stroke-width:1.11400926;stroke-linecap:square;stroke-linejoin:round;stroke-miterlimit:4;stroke-dasharray:2.22801847, 1.11400923;stroke-dashoffset:0;stroke-opacity:1"
         id="circle5794"
         cx="-3806.0786"
         cy="565.86804"
         r="523.94617" />
      <circle
         r="784.39282"
         cy="565.86804"
         cx="-3806.0786"
         id="circle5796"
         style="opacity:1;fill:none;fill-opacity:1;fill-rule:nonzero;stroke:#000000;stroke-width:1.66776836;stroke-linecap:square;stroke-linejoin:round;stroke-miterlimit:4;stroke-dasharray:3.33553672, 1.66776835;stroke-dashoffset:0;stroke-opacity:1" />
      <rect
         transform="matrix(0.99264271,-0.12108031,0.12108031,0.99264271,0,0)"
         style="opacity:1;fill:none;fill-opacity:1;fill-rule:nonzero;stroke:#000000;stroke-width:1;stroke-linecap:square;stroke-linejoin:miter;stroke-miterlimit:4;stroke-dasharray:none;stroke-dashoffset:0;stroke-opacity:1"
         id="rect5800"
         width="18.074448"
         height="1706.2279"
         x="-3855.7695"
         y="-752.39349" />
      <rect
         y="2992.5776"
         x="125.68507"
         height="1706.2279"
         width="18.074448"
         id="rect5802"
         style="opacity:1;fill:none;fill-opacity:1;fill-rule:nonzero;stroke:#000000;stroke-width:1;stroke-linecap:square;stroke-linejoin:miter;stroke-miterlimit:4;stroke-dasharray:none;stroke-dashoffset:0;stroke-opacity:1"
         transform="matrix(0.11230045,0.9936743,-0.9936743,0.11230045,0,0)" />
      <rect
         transform="matrix(0.59496645,0.80375053,-0.80375053,0.59496645,0,0)"
         style="opacity:1;fill:none;fill-opacity:1;fill-rule:nonzero;stroke:#000000;stroke-width:1;stroke-linecap:square;stroke-linejoin:miter;stroke-miterlimit:4;stroke-dasharray:none;stroke-dashoffset:0;stroke-opacity:1"
         id="rect5804"
         width="18.074448"
         height="1706.2279"
         x="-1818.9036"
         y="2542.748" />
      <rect
         y="1177.4313"
         x="-3277.7341"
         height="1706.2279"
         width="18.074448"
         id="rect5806"
         style="opacity:1;fill:none;fill-opacity:1;fill-rule:nonzero;stroke:#000000;stroke-width:1;stroke-linecap:square;stroke-linejoin:miter;stroke-miterlimit:4;stroke-dasharray:none;stroke-dashoffset:0;stroke-opacity:1"
         transform="matrix(0.91779186,0.39706183,-0.39706183,0.91779186,0,0)" />
      <rect
         y="981.50439"
         x="3373.5164"
         height="1706.2279"
         width="18.074448"
         id="rect5808"
         style="opacity:1;fill:none;fill-opacity:1;fill-rule:nonzero;stroke:#000000;stroke-width:1;stroke-linecap:square;stroke-linejoin:miter;stroke-miterlimit:4;stroke-dasharray:none;stroke-dashoffset:0;stroke-opacity:1"
         transform="matrix(-0.79938399,0.60082047,-0.60082047,-0.79938399,0,0)" />
      <rect
         transform="matrix(-0.40144542,0.91588295,-0.91588295,-0.40144542,0,0)"
         style="opacity:1;fill:none;fill-opacity:1;fill-rule:nonzero;stroke:#000000;stroke-width:1;stroke-linecap:square;stroke-linejoin:miter;stroke-miterlimit:4;stroke-dasharray:none;stroke-dashoffset:0;stroke-opacity:1"
         id="rect5831"
         width="18.074448"
         height="1706.2279"
         x="2037.1129"
         y="2405.8374" />
    </g>
    <g
       id="g5995"
       transform="matrix(0.51339804,0,0,0.51339804,-125.90745,-351.4189)">
      <g
         transform="matrix(0,-1,1,0,-2917.6771,-813.37246)"
         id="g5941">
        <path
           style="fill:#982068;fill-opacity:1;fill-rule:evenodd;stroke:none;stroke-width:1px;stroke-linecap:butt;stroke-linejoin:miter;stroke-opacity:1"
           d="m -1746.6948,-6.5035921 c 118.3616,-8.9691099 242.0137,8.35079 386.7528,68.9223601 l -121.5442,275.460462 c -92.6339,-36.0952 -132.8651,-41.24374 -228.0548,-40.72825 z"
           id="path5875"
           inkscape:connector-curvature="0"
           sodipodi:nodetypes="ccccc" />
        <path
           sodipodi:nodetypes="ccccc"
           inkscape:connector-curvature="0"
           id="path5877"
           d="m -1345.2929,71.367419 c 106.9417,51.510871 204.2913,121.628631 296.4674,240.073561 l -235.0257,171.97666 c -75.5103,-75.29819 -103.5232,-97.76586 -180.7889,-137.90388 z"
           style="fill:#ca2035;fill-opacity:1;fill-rule:evenodd;stroke:none;stroke-width:1px;stroke-linecap:butt;stroke-linejoin:miter;stroke-opacity:1"
           inkscape:transform-center-x="-98.123135"
           inkscape:transform-center-y="203.83403" />
        <path
           inkscape:transform-center-y="201.31331"
           inkscape:transform-center-x="34.867975"
           style="fill:#ef5124;fill-opacity:1;fill-rule:evenodd;stroke:none;stroke-width:1px;stroke-linecap:butt;stroke-linejoin:miter;stroke-opacity:1"
           d="m -1037.7695,323.13864 c 68.09906,97.2235 131.92546,195.90036 162.81856,352.59497 l -286.85646,31.82863 c -25.3537,-94.13179 -60.7919,-142.33319 -110.6774,-208.98311 z"
           id="path5879"
           inkscape:connector-curvature="0"
           sodipodi:nodetypes="ccccc" />
        <path
           sodipodi:nodetypes="ccccc"
           inkscape:connector-curvature="0"
           id="path5881"
           d="m -1157.0616,726.16229 c 23.8959,91.45266 27.2584,167.79191 11.5407,263.28026 l -274.3865,-121.19254 c -3.9035,-31.33418 -13.1397,-84.15668 -27.246,-110.40909 z"
           style="fill:#f46f22;fill-opacity:1;fill-rule:evenodd;stroke:none;stroke-width:1px;stroke-linecap:butt;stroke-linejoin:miter;stroke-opacity:1"
           inkscape:transform-center-x="150.55587"
           inkscape:transform-center-y="194.36315" />
        <path
           inkscape:transform-center-y="96.90661"
           inkscape:transform-center-x="204.06873"
           style="fill:#fdb917;fill-opacity:1;fill-rule:evenodd;stroke:none;stroke-width:1px;stroke-linecap:butt;stroke-linejoin:miter;stroke-opacity:1"
           d="m -1147.6101,1007.1649 c -29.1669,139.9255 -76.7363,206.2961 -120.8114,273.376 l -186.7765,-250.3365 c 28.5814,-51.63337 24.3546,-75.59767 36.1862,-140.51891 z"
           id="path5883"
           inkscape:connector-curvature="0"
           sodipodi:nodetypes="ccccc" />
        <path
           sodipodi:nodetypes="ccccc"
           inkscape:connector-curvature="0"
           id="path5885"
           d="m -1279.7733,1295.7004 c -47.3857,53.7987 -128.765,151.4694 -283.3618,203.3552 l -36.9584,-310.1039 c 68.7257,-47.2281 86.0974,-65.556 137.2387,-139.167 z"
           style="fill:#f6ec1d;fill-opacity:1;fill-rule:evenodd;stroke:none;stroke-width:1px;stroke-linecap:butt;stroke-linejoin:miter;stroke-opacity:1"
           inkscape:transform-center-x="200.98158"
           inkscape:transform-center-y="-36.363245" />
        <path
           inkscape:transform-center-y="-151.1425"
           inkscape:transform-center-x="194.26181"
           style="fill:#c4d334;fill-opacity:1;fill-rule:evenodd;stroke:none;stroke-width:1px;stroke-linecap:butt;stroke-linejoin:miter;stroke-opacity:1"
           d="m -1581.2419,1505.2254 c -91.5772,29.151 -235.5648,46.7439 -382.0773,-7.5376 l 118.1052,-278.1888 c 92.6693,17.7048 123.4464,15.5673 227.0636,-21.7223 z"
           id="path5887"
           inkscape:connector-curvature="0"
           sodipodi:nodetypes="ccccc" />
        <path
           sodipodi:nodetypes="ccccc"
           inkscape:connector-curvature="0"
           id="path5889"
           d="m -1980.305,1491.9077 c -106.5059,-40.321 -217.4089,-115.3202 -313.5486,-239.3182 l 235.951,-173.0963 c 57.4062,70.4972 109.4046,102.1094 197.0603,136.7648 z"
           style="fill:#239941;fill-opacity:1;fill-rule:evenodd;stroke:none;stroke-width:1px;stroke-linecap:butt;stroke-linejoin:miter;stroke-opacity:1"
           inkscape:transform-center-x="100.47754"
           inkscape:transform-center-y="-203.36431" />
        <path
           inkscape:transform-center-y="-200.70153"
           inkscape:transform-center-x="-37.602235"
           style="fill:#179897;fill-opacity:1;fill-rule:evenodd;stroke:none;stroke-width:1px;stroke-linecap:butt;stroke-linejoin:miter;stroke-opacity:1"
           d="m -2302.8778,1239.1828 c -67.0834,-97.927 -120.515,-217.1086 -136.0229,-368.09474 l 284.3545,-33.88259 c 12.5993,95.5748 34.5409,159.39937 84.3147,227.87783 z"
           id="path5891"
           inkscape:connector-curvature="0"
           sodipodi:nodetypes="ccccc" />
        <path
           sodipodi:nodetypes="ccccc"
           inkscape:connector-curvature="0"
           id="path5893"
           d="m -2440.9342,853.44052 c -8.3577,-118.40616 5.0139,-239.27434 66.3322,-383.69874 l 262.9634,116.24477 c -37.4582,88.82666 -48.5748,151.0401 -44.8795,235.28736 z"
           style="fill:#233d96;fill-opacity:1;fill-rule:evenodd;stroke:none;stroke-width:1px;stroke-linecap:butt;stroke-linejoin:miter;stroke-opacity:1"
           inkscape:transform-center-x="-151.84461"
           inkscape:transform-center-y="-194.13634" />
        <path
           inkscape:transform-center-y="-98.269851"
           inkscape:transform-center-x="-203.80532"
           style="fill:#6d2c9a;fill-opacity:1;fill-rule:evenodd;stroke:none;stroke-width:1px;stroke-linecap:butt;stroke-linejoin:miter;stroke-opacity:1"
           d="m -2368.5658,454.33889 c 49.5992,-97.73254 115.6121,-204.38452 232.1527,-299.40688 l 179.4221,237.38783 c -70.1022,56.72097 -99.5709,97.17217 -146.1308,177.23023 z"
           id="path5895"
           inkscape:connector-curvature="0"
           sodipodi:nodetypes="ccccc" />
        <path
           sodipodi:nodetypes="ccccc"
           inkscape:connector-curvature="0"
           id="path5897"
           d="m -2123.5775,144.16647 c 96.5333,-69.073898 204.0197,-124.325972 359.181,-147.6348221 l 37.2275,303.9043921 c -95.2968,14.55318 -143.9802,36.61564 -216.0251,81.35359 z"
           style="fill:#93268f;fill-opacity:1;fill-rule:evenodd;stroke:none;stroke-width:1px;stroke-linecap:butt;stroke-linejoin:miter;stroke-opacity:1"
           inkscape:transform-center-x="-201.88404"
           inkscape:transform-center-y="32.220781" />
      </g>
      <g
         id="g5979">
        <path
           style="color:#000000;clip-rule:nonzero;display:inline;overflow:visible;visibility:visible;opacity:1;isolation:auto;mix-blend-mode:normal;color-interpolation:sRGB;color-interpolation-filters:linearRGB;solid-color:#000000;solid-opacity:1;fill:none;fill-opacity:0.46448089;fill-rule:nonzero;stroke:#000000;stroke-width:30;stroke-linecap:square;stroke-linejoin:miter;stroke-miterlimit:4;stroke-dasharray:none;stroke-dashoffset:0;stroke-opacity:1;color-rendering:auto;image-rendering:auto;shape-rendering:auto;text-rendering:auto;enable-background:accumulate"
           id="path5961"
           sodipodi:type="arc"
           sodipodi:cx="-2281.4775"
           sodipodi:cy="872.03918"
           sodipodi:rx="284.78687"
           sodipodi:ry="368.41489"
           sodipodi:start="5.7313992"
           sodipodi:end="4.6809517"
           d="m -2038.956,678.91275 a 284.78687,368.41489 0 0 1 -35.3925,445.97195 284.78687,368.41489 0 0 1 -342.1076,71.5602 284.78687,368.41489 0 0 1 -142.2324,-408.81731 284.78687,368.41489 0 0 1 268.2595,-283.82125"
           sodipodi:open="true" />
        <path
           style="fill:none;fill-rule:evenodd;stroke:#000000;stroke-width:30;stroke-linecap:butt;stroke-linejoin:miter;stroke-miterlimit:4;stroke-dasharray:none;stroke-opacity:1"
           d="m -2281.2726,1235.4824 -5.6366,-402.82762"
           id="path5963"
           inkscape:path-effect="#path-effect5965"
           inkscape:original-d="m -2281.2726,1235.4824 c 6.4808,-49.4815 -102.2798,-483.14079 -5.6366,-402.82762"
           inkscape:connector-curvature="0" />
        <path
           inkscape:connector-curvature="0"
           inkscape:original-d="m -1854.0779,1237.5885 c -14.5854,-32.8261 -281.0534,-225.148 -167.6412,-233.5978"
           inkscape:path-effect="#path-effect5969"
           id="path5967"
           d="m -1854.0779,1237.5885 -167.6412,-233.5978"
           style="fill:none;fill-rule:evenodd;stroke:#000000;stroke-width:25.54999161;stroke-linecap:butt;stroke-linejoin:miter;stroke-miterlimit:4;stroke-dasharray:none;stroke-opacity:1" />
        <path
           style="fill:none;fill-rule:evenodd;stroke:#000000;stroke-width:25.54999161;stroke-linecap:butt;stroke-linejoin:miter;stroke-miterlimit:4;stroke-dasharray:none;stroke-opacity:1"
           d="m -1838.3976,789.69385 -167.6412,233.59785"
           id="path5975"
           inkscape:path-effect="#path-effect5977"
           inkscape:original-d="m -1838.3976,789.69385 c -14.5854,32.8261 -281.0534,225.14805 -167.6412,233.59785"
           inkscape:connector-curvature="0" />
      </g>
    </g>
    <g
       id="g4345"
       inkscape:export-xdpi="71"
       inkscape:export-ydpi="71">
      <g
         id="g4187"
         transform="matrix(0,-0.51339804,0.51339804,0,-2580.9131,-29.908447)">
        <path
           sodipodi:nodetypes="ccccc"
           inkscape:connector-curvature="0"
           id="path4189"
           d="m -1746.6948,-6.5035921 c 118.3616,-8.9691099 242.0137,8.35079 386.7528,68.9223601 l -121.5442,275.460462 c -92.6339,-36.0952 -132.8651,-41.24374 -228.0548,-40.72825 z"
           style="fill:#982068;fill-opacity:1;fill-rule:evenodd;stroke:none;stroke-width:1px;stroke-linecap:butt;stroke-linejoin:miter;stroke-opacity:1" />
        <path
           inkscape:transform-center-y="203.83403"
           inkscape:transform-center-x="-98.123135"
           style="fill:#ca2035;fill-opacity:1;fill-rule:evenodd;stroke:none;stroke-width:1px;stroke-linecap:butt;stroke-linejoin:miter;stroke-opacity:1"
           d="m -1345.2929,71.367419 c 106.9417,51.510871 204.2913,121.628631 296.4674,240.073561 l -235.0257,171.97666 c -75.5103,-75.29819 -103.5232,-97.76586 -180.7889,-137.90388 z"
           id="path4191"
           inkscape:connector-curvature="0"
           sodipodi:nodetypes="ccccc" />
        <path
           sodipodi:nodetypes="ccccc"
           inkscape:connector-curvature="0"
           id="path4193"
           d="m -1037.7695,323.13864 c 68.09906,97.2235 131.92546,195.90036 162.81856,352.59497 l -286.85646,31.82863 c -25.3537,-94.13179 -60.7919,-142.33319 -110.6774,-208.98311 z"
           style="fill:#ef5124;fill-opacity:1;fill-rule:evenodd;stroke:none;stroke-width:1px;stroke-linecap:butt;stroke-linejoin:miter;stroke-opacity:1"
           inkscape:transform-center-x="34.867975"
           inkscape:transform-center-y="201.31331" />
        <path
           inkscape:transform-center-y="194.36315"
           inkscape:transform-center-x="150.55587"
           style="fill:#f46f22;fill-opacity:1;fill-rule:evenodd;stroke:none;stroke-width:1px;stroke-linecap:butt;stroke-linejoin:miter;stroke-opacity:1"
           d="m -1157.0616,726.16229 c 23.8959,91.45266 27.2584,167.79191 11.5407,263.28026 l -274.3865,-121.19254 c -3.9035,-31.33418 -13.1397,-84.15668 -27.246,-110.40909 z"
           id="path4195"
           inkscape:connector-curvature="0"
           sodipodi:nodetypes="ccccc" />
        <path
           sodipodi:nodetypes="ccccc"
           inkscape:connector-curvature="0"
           id="path4197"
           d="m -1147.6101,1007.1649 c -29.1669,139.9255 -76.7363,206.2961 -120.8114,273.376 l -186.7765,-250.3365 c 28.5814,-51.63337 24.3546,-75.59767 36.1862,-140.51891 z"
           style="fill:#fdb917;fill-opacity:1;fill-rule:evenodd;stroke:none;stroke-width:1px;stroke-linecap:butt;stroke-linejoin:miter;stroke-opacity:1"
           inkscape:transform-center-x="204.06873"
           inkscape:transform-center-y="96.90661" />
        <path
           inkscape:transform-center-y="-36.363245"
           inkscape:transform-center-x="200.98158"
           style="fill:#f6ec1d;fill-opacity:1;fill-rule:evenodd;stroke:none;stroke-width:1px;stroke-linecap:butt;stroke-linejoin:miter;stroke-opacity:1"
           d="m -1279.7733,1295.7004 c -47.3857,53.7987 -128.765,151.4694 -283.3618,203.3552 l -36.9584,-310.1039 c 68.7257,-47.2281 86.0974,-65.556 137.2387,-139.167 z"
           id="path4199"
           inkscape:connector-curvature="0"
           sodipodi:nodetypes="ccccc" />
        <path
           sodipodi:nodetypes="ccccc"
           inkscape:connector-curvature="0"
           id="path4201"
           d="m -1581.2419,1505.2254 c -91.5772,29.151 -235.5648,46.7439 -382.0773,-7.5376 l 118.1052,-278.1888 c 92.6693,17.7048 123.4464,15.5673 227.0636,-21.7223 z"
           style="fill:#c4d334;fill-opacity:1;fill-rule:evenodd;stroke:none;stroke-width:1px;stroke-linecap:butt;stroke-linejoin:miter;stroke-opacity:1"
           inkscape:transform-center-x="194.26181"
           inkscape:transform-center-y="-151.1425" />
        <path
           inkscape:transform-center-y="-203.36431"
           inkscape:transform-center-x="100.47754"
           style="fill:#239941;fill-opacity:1;fill-rule:evenodd;stroke:none;stroke-width:1px;stroke-linecap:butt;stroke-linejoin:miter;stroke-opacity:1"
           d="m -1980.305,1491.9077 c -106.5059,-40.321 -217.4089,-115.3202 -313.5486,-239.3182 l 235.951,-173.0963 c 57.4062,70.4972 109.4046,102.1094 197.0603,136.7648 z"
           id="path4203"
           inkscape:connector-curvature="0"
           sodipodi:nodetypes="ccccc" />
        <path
           sodipodi:nodetypes="ccccc"
           inkscape:connector-curvature="0"
           id="path4205"
           d="m -2302.8778,1239.1828 c -67.0834,-97.927 -120.515,-217.1086 -136.0229,-368.09474 l 284.3545,-33.88259 c 12.5993,95.5748 34.5409,159.39937 84.3147,227.87783 z"
           style="fill:#179897;fill-opacity:1;fill-rule:evenodd;stroke:none;stroke-width:1px;stroke-linecap:butt;stroke-linejoin:miter;stroke-opacity:1"
           inkscape:transform-center-x="-37.602235"
           inkscape:transform-center-y="-200.70153" />
        <path
           inkscape:transform-center-y="-194.13634"
           inkscape:transform-center-x="-151.84461"
           style="fill:#233d96;fill-opacity:1;fill-rule:evenodd;stroke:none;stroke-width:1px;stroke-linecap:butt;stroke-linejoin:miter;stroke-opacity:1"
           d="m -2440.9342,853.44052 c -8.3577,-118.40616 5.0139,-239.27434 66.3322,-383.69874 l 262.9634,116.24477 c -37.4582,88.82666 -48.5748,151.0401 -44.8795,235.28736 z"
           id="path4207"
           inkscape:connector-curvature="0"
           sodipodi:nodetypes="ccccc" />
        <path
           sodipodi:nodetypes="ccccc"
           inkscape:connector-curvature="0"
           id="path4209"
           d="m -2368.5658,454.33889 c 49.5992,-97.73254 115.6121,-204.38452 232.1527,-299.40688 l 179.4221,237.38783 c -70.1022,56.72097 -99.5709,97.17217 -146.1308,177.23023 z"
           style="fill:#6d2c9a;fill-opacity:1;fill-rule:evenodd;stroke:none;stroke-width:1px;stroke-linecap:butt;stroke-linejoin:miter;stroke-opacity:1"
           inkscape:transform-center-x="-203.80532"
           inkscape:transform-center-y="-98.269851" />
        <path
           inkscape:transform-center-y="32.220781"
           inkscape:transform-center-x="-201.88404"
           style="fill:#93268f;fill-opacity:1;fill-rule:evenodd;stroke:none;stroke-width:1px;stroke-linecap:butt;stroke-linejoin:miter;stroke-opacity:1"
           d="m -2123.5775,144.16647 c 96.5333,-69.073898 204.0197,-124.325972 359.181,-147.6348221 l 37.2275,303.9043921 c -95.2968,14.55318 -143.9802,36.61564 -216.0251,81.35359 z"
           id="path4211"
           inkscape:connector-curvature="0"
           sodipodi:nodetypes="ccccc" />
      </g>
      <path
         sodipodi:nodetypes="cccscccsccsscc"
         inkscape:connector-curvature="0"
         id="path4215"
         d="m -2208.3302,712.05855 c -206.7329,9.48848 -163.0994,256.28014 -72.8351,182.39415 48.8651,165.1686 187.2253,56.34516 94.9088,-164.63242 19.1663,-7.18859 38.6878,-13.23154 49.3428,-13.59105 3.6071,-0.12171 21.2788,64.07065 28.8839,137.69985 15.7733,-47.77959 57.1423,-114.16415 57.1423,-114.16415 34.4802,13.97257 63.3874,58.08694 63.3874,58.08694 0,0 -85.0219,41.93616 -84.2877,80.97417 0.5114,27.18635 99.128,45.50755 99.128,45.50755 -13.965,30.0368 -30.2808,57.69638 -62.9142,87.73321 0,0 -68.9376,-95.3003 -68.9685,-92.82218 -1.2463,99.81978 -109.8825,170.48538 -206.4516,102.91558 -171.8074,-120.21436 -127.1687,-360.11229 90.501,-441.33578 z"
         style="color:#000000;font-style:normal;font-variant:normal;font-weight:normal;font-stretch:normal;font-size:medium;line-height:normal;font-family:sans-serif;text-indent:0;text-align:start;text-decoration:none;text-decoration-line:none;text-decoration-style:solid;text-decoration-color:#000000;letter-spacing:normal;word-spacing:normal;text-transform:none;direction:ltr;block-progression:tb;writing-mode:lr-tb;baseline-shift:baseline;text-anchor:start;white-space:normal;clip-rule:nonzero;display:inline;overflow:visible;visibility:visible;opacity:1;isolation:auto;mix-blend-mode:normal;color-interpolation:sRGB;color-interpolation-filters:linearRGB;solid-color:#000000;solid-opacity:1;fill:#000000;fill-opacity:1;fill-rule:nonzero;stroke:none;stroke-width:1;stroke-linecap:square;stroke-linejoin:miter;stroke-miterlimit:4;stroke-dasharray:none;stroke-dashoffset:0;stroke-opacity:1;color-rendering:auto;image-rendering:auto;shape-rendering:auto;text-rendering:auto;enable-background:accumulate" />
    </g>
  </g>
</svg>
